<svg width="71" height="80" viewBox="0 0 71 80" fill="none" xmlns="http://www.w3.org/2000/svg">
<g id="Capa_1" clip-path="url(#clip0_411_844)">
<path id="Vector" d="M50.8097 62.7636C61.9606 62.7636 71.0002 53.6901 71.0002 42.4974C71.0002 31.3048 61.9606 22.2313 50.8097 22.2313C39.6588 22.2313 30.6191 31.3048 30.6191 42.4974C30.6191 53.6901 39.6588 62.7636 50.8097 62.7636Z" fill="#27284E"/>
<path id="Vector_2" d="M51.5 52C61.165 52 69 45.5081 69 37.5C69 29.4919 61.165 23 51.5 23C41.835 23 34 29.4919 34 37.5C34 45.5081 41.835 52 51.5 52Z" fill="#393A71"/>
<g id="Vector_3">
<path d="M57.8392 42.2382C57.9752 49.4985 54.4674 54.9165 52.1968 57.7005C51.449 58.6149 50.0757 58.6149 49.3415 57.7005C47.1525 54.9165 43.9846 49.8124 43.7942 42.9888C43.5903 35.7285 46.867 30.2423 49.056 27.3491C49.763 26.4211 51.1363 26.3801 51.884 27.2672C54.1818 29.9693 57.7033 35.1826 57.8392 42.2518V42.2382Z" fill="#5FB5C9" style="mix-blend-mode:screen"/>
</g>
<path id="Vector_4" d="M56.5 41C59.5376 41 62 38.3137 62 35C62 31.6863 59.5376 29 56.5 29C53.4624 29 51 31.6863 51 35C51 38.3137 53.4624 41 56.5 41Z" fill="#E8EBFF"/>
<path id="Vector_5" d="M49.2593 69.8874C50.4694 69.6418 51.3123 71.102 50.4558 72.0027C45.7514 76.943 39.13 80.0137 31.7744 80.0137C17.5119 80.0137 5.94141 68.4135 5.94141 54.084C5.94141 43.985 11.7062 35.2371 20.1088 30.9519C20.8974 30.5561 21.7403 31.4296 21.3188 32.2075C19.0347 36.4517 17.8926 41.4193 18.3277 46.6872C19.3202 58.8741 28.9872 68.8775 41.1015 70.2559C43.9295 70.5834 46.676 70.4333 49.2729 69.9011L49.2593 69.8874Z" fill="#A5B1D1"/>
<path id="Vector_6" d="M16.6961 14.6025C16.2746 14.5616 19.5921 11.0406 20.1903 7.08287C20.6118 4.31249 20.1631 1.96517 19.6737 0.38209C19.5785 0.0682043 19.9592 -0.150151 20.1767 0.0954987C21.4548 1.44657 23.5894 3.67107 26.8933 4.06684C30.5371 4.50355 33.7594 3.28895 34.2489 3.87578C34.8472 4.42167 30.7683 6.33228 30.1292 8.80242C29.0823 12.8966 32.5902 16.9771 31.8016 17.5639C31.0402 18.1235 28.4297 13.9474 24.0245 13.1013C21.2508 12.5691 16.9544 15.0529 16.6961 14.6161V14.6025Z" fill="#A5B1D1"/>
<path id="Vector_7" d="M0.000279898 26.1345C-0.176472 25.9707 2.58358 25.4794 4.22874 23.8554C5.38442 22.709 5.98266 21.4671 6.29538 20.5664C6.36336 20.389 6.60809 20.4163 6.63529 20.6073C6.75765 21.6855 6.98879 23.4596 8.38921 24.797C9.9256 26.2709 11.8427 26.8305 11.8699 27.2672C11.965 27.7312 9.39534 27.1989 8.25325 28.1133C6.34976 29.6554 6.5673 32.767 5.99626 32.767C5.4524 32.767 5.68354 29.9147 3.92962 27.9905C2.82832 26.7759 -0.0269127 26.4347 0.000279898 26.1345Z" fill="#A5B1D1"/>
</g>
<defs>
<clipPath id="clip0_411_844">
<rect width="71" height="80" fill="white"/>
</clipPath>
</defs>
</svg>
