<svg width="46" height="56" viewBox="0 0 46 56" fill="none" xmlns="http://www.w3.org/2000/svg">
<path d="M12.8041 18.3067C12.4713 13.7911 16.0081 9.83884 20.6655 9.52161L35.0236 8.54367C35.202 8.53152 35.3363 8.38143 35.3235 8.20847C34.9908 3.69288 30.9098 0.25944 26.2524 0.576664L8.46633 1.78809C3.80923 2.10999 0.272455 6.06229 0.605189 10.5779L2.96257 42.5703C3.2953 47.0859 7.37629 50.5193 12.0337 50.2021L12.8196 50.1486C14.1021 50.0612 15.0643 48.9809 14.973 47.7422L12.8044 18.3114L12.8041 18.3067Z" fill="#9B3637"/>
<path d="M36.169 7.43498L21.9133 5.99069C16.5128 5.44355 11.6725 9.21774 11.1022 14.4206L8.03225 42.4302C7.46199 47.633 11.3777 52.2943 16.7782 52.8414L31.034 54.2857C36.4345 54.8329 41.2748 51.0587 41.845 45.8559L44.915 17.8463C45.4853 12.6434 41.5695 7.98213 36.169 7.43498Z" fill="#E86C56"/>
<path d="M25.6367 39.8308L27.0454 24.3008C26.374 24.7838 25.6856 25.1084 24.9802 25.2745C24.2748 25.4406 23.5836 25.5662 22.9065 25.6512L23.2057 22.3522C24.3751 22.1445 25.4577 21.7407 26.4535 21.1407C27.4492 20.5407 28.2847 19.8634 28.9598 19.1088L30.9205 19.2866L29.029 40.1385L25.6367 39.8308ZM21.4352 39.4497L21.709 36.4308L33.6288 37.5121L33.355 40.5309L21.4352 39.4497Z" fill="#E8EBFF"/>
</svg>
