<svg width="42" height="87" viewBox="0 0 42 87" fill="none" xmlns="http://www.w3.org/2000/svg">
<g id="Capa_1" clip-path="url(#clip0_411_779)">
<path id="Vector" d="M16.9629 48.4152C15.1235 50.7229 12.7258 54.5067 13.1904 58.8487C13.816 64.7154 19.1433 66.7084 20.1585 72.6613C20.6081 75.2838 20.3496 79.4384 16.075 85.2677" stroke="#27284E" stroke-width="2" stroke-linecap="round" stroke-linejoin="round"/>
<path id="Vector_2" d="M21.0019 42.7995C32.6009 42.7995 42.0037 33.3966 42.0037 21.7976C42.0037 10.1986 32.6009 0.795715 21.0019 0.795715C9.40286 0.795715 0 10.1986 0 21.7976C0 33.3966 9.40286 42.7995 21.0019 42.7995Z" fill="#DC4F51"/>
<path id="Vector_3" d="M14.9258 41.6119L11.3967 47.7671C10.4939 49.3406 11.629 51.3037 13.446 51.3037H20.002C21.7516 51.3037 22.8942 49.468 22.1224 47.8983L19.0954 41.7431C18.26 40.046 15.8698 39.9673 14.9258 41.6082V41.6119Z" fill="#DC4F51"/>
</g>
<defs>
<clipPath id="clip0_411_779">
<rect width="42" height="85.4086" fill="white" transform="translate(0 0.795715)"/>
</clipPath>
</defs>
</svg>
