<svg width="43" height="42" viewBox="0 0 43 42" fill="none" xmlns="http://www.w3.org/2000/svg">
<g id="Vector">
<path d="M39.7291 24.3067C38.7189 23.5284 38.2299 22.2681 38.2299 20.993C38.2299 19.724 38.7058 18.4553 39.7147 17.6856L42.6029 15.4823C43.0045 15.1762 43.116 14.5857 42.8706 14.1484L38.5869 6.88831C38.3192 6.40722 37.7614 6.25415 37.2706 6.40722L33.8416 7.7572C32.6581 8.22313 31.3418 8.01981 30.2405 7.38355C29.1023 6.72596 28.208 5.64932 28.0199 4.34834L27.5208 0.896574C27.4315 0.37175 26.9853 0 26.4498 0H17.8825C17.347 0 16.9231 0.37175 16.8339 0.896574L16.3352 4.3448C16.1468 5.64797 15.2414 6.73332 14.1023 7.39381C13.0037 8.03084 11.6985 8.2239 10.5168 7.75867L7.08405 6.40722C6.59321 6.23228 6.03544 6.40722 5.76771 6.88831L1.50635 14.1484C1.23862 14.6076 1.32786 15.1762 1.77408 15.4823L4.6592 17.6833C5.67 18.4544 6.10238 19.7216 6.10238 20.993C6.10238 22.2619 5.62657 23.5306 4.61768 24.3003L1.72945 26.5036C1.32786 26.8098 1.21631 27.4002 1.46172 27.8375L5.7454 35.0976C6.01313 35.5787 6.5709 35.7318 7.06174 35.5787L10.4907 34.2287C11.6742 33.7628 12.9905 33.9661 14.0918 34.6024C15.2301 35.2599 16.1243 36.3366 16.3124 37.6376L16.8116 41.0893C16.9231 41.6142 17.347 41.9859 17.8825 41.9859H26.4498C26.9853 41.9859 27.4315 41.6142 27.4984 41.0893L27.9992 37.6262C28.1863 36.3322 29.0826 35.2592 30.2164 34.6083C31.3244 33.9721 32.6418 33.7652 33.8307 34.2332L37.2483 35.5787C37.7391 35.7536 38.2969 35.5787 38.5646 35.0976L42.8483 27.8375C43.116 27.3564 43.0045 26.8098 42.5806 26.5036L39.7291 24.3067ZM22.1661 28.8653C17.7486 28.8653 14.1343 25.3227 14.1343 20.993C14.1343 16.6632 17.7486 13.1206 22.1661 13.1206C26.5837 13.1206 30.1981 16.6632 30.1981 20.993C30.1981 25.3227 26.5837 28.8653 22.1661 28.8653Z" fill="#BE5E5E"/>
<path d="M38.3968 24.3208C37.3866 23.5425 36.8976 22.2822 36.8976 21.007C36.8976 19.7381 37.3735 18.4694 38.3824 17.6997L41.2705 15.4964C41.6721 15.1902 41.7837 14.5998 41.5383 14.1625L37.2546 6.90241C36.9869 6.42132 36.4291 6.26824 35.9383 6.42132L32.5093 7.77129C31.3258 8.23722 30.0095 8.03391 28.9081 7.39764C27.7699 6.74006 26.8757 5.66342 26.6876 4.36243L26.1884 0.910668C26.0992 0.385844 25.653 0.0140944 25.1175 0.0140944H16.5502C16.0147 0.0140944 15.5908 0.385844 15.5016 0.910668L15.0029 4.3589C14.8145 5.66207 13.9091 6.74741 12.77 7.4079C11.6714 8.04494 10.3661 8.23799 9.18445 7.77276L5.75173 6.42132C5.26089 6.24638 4.70312 6.42132 4.43539 6.90241L0.174025 14.1625C-0.0937047 14.6217 -0.00446161 15.1902 0.441755 15.4964L3.32687 17.6974C4.33767 18.4685 4.77005 19.7357 4.77005 21.007C4.77005 22.276 4.29425 23.5447 3.28535 24.3144L0.397133 26.5177C-0.00446161 26.8238 -0.116015 27.4143 0.129404 27.8516L4.41308 35.1117C4.68081 35.5928 5.23858 35.7458 5.72942 35.5928L9.1584 34.2428C10.3419 33.7769 11.6582 33.9802 12.7595 34.6165C13.8977 35.274 14.792 36.3507 14.9801 37.6517L15.4792 41.1034C15.5908 41.6283 16.0147 42 16.5502 42H25.1175C25.653 42 26.0992 41.6283 26.1661 41.1034L26.6669 37.6403C26.854 36.3463 27.7503 35.2733 28.8841 34.6224C29.9921 33.9862 31.3095 33.7792 32.4984 34.2473L35.916 35.5928C36.4068 35.7677 36.9646 35.5928 37.2323 35.1117L41.516 27.8516C41.7837 27.3705 41.6721 26.8238 41.2482 26.5177L38.3968 24.3208ZM20.8338 28.8794C16.4163 28.8794 12.8019 25.3368 12.8019 21.007C12.8019 16.6772 16.4163 13.1347 20.8338 13.1347C25.2514 13.1347 28.8657 16.6772 28.8657 21.007C28.8657 25.3368 25.2514 28.8794 20.8338 28.8794Z" fill="#9B3637"/>
</g>
</svg>
