<svg width="49" height="58" viewBox="0 0 49 58" fill="none" xmlns="http://www.w3.org/2000/svg">
<g id="Group 187">
<path id="Vector" d="M13.0638 19.14C12.7311 14.6244 16.2679 10.6721 20.9253 10.3549L35.2834 9.37692C35.4617 9.36477 35.5961 9.21468 35.5833 9.04172C35.2506 4.52614 31.1696 1.09269 26.5121 1.40992L8.72609 2.62135C4.06899 2.94324 0.532221 6.89554 0.864954 11.4111L3.22233 43.4036C3.55506 47.9191 7.63606 51.3526 12.2935 51.0354L13.0794 50.9818C14.3619 50.8945 15.3241 49.8142 15.2328 48.5754L13.0642 19.1447L13.0638 19.14Z" fill="#5FB5C9"/>
<path id="Vector_2" d="M17.6003 21.6114C17.6003 17.0845 21.4187 13.3824 26.0878 13.3824H40.4819C40.6607 13.3824 40.8057 13.2418 40.8057 13.0684C40.8057 8.54148 36.9873 4.83936 32.3182 4.83936H14.4875C9.81843 4.84404 6 8.54617 6 13.0731V45.1457C6 49.6726 9.81843 53.3747 14.4875 53.3747H15.2754C16.5611 53.3747 17.6003 52.3625 17.6003 51.1206V21.6161V21.6114Z" fill="#4999AB"/>
<path id="Vector_3" d="M39.169 10.1586L24.9133 8.71433C19.5128 8.16718 14.6725 11.9414 14.1022 17.1442L11.0322 45.1538C10.462 50.3567 14.3777 55.0179 19.7782 55.5651L34.034 57.0094C39.4345 57.5565 44.2748 53.7823 44.845 48.5795L47.915 20.5699C48.4853 15.367 44.5695 10.7058 39.169 10.1586Z" fill="#2D7384"/>
<path id="Vector_4" d="M35.2575 20.4712L26.6444 19.5986C23.3815 19.268 20.49 21.2477 20.1861 24.0205L18.55 38.9474C18.2461 41.7202 20.6449 44.2359 23.9078 44.5665L32.5209 45.4391C35.7838 45.7697 38.6753 43.7899 38.9792 41.0172L40.6153 26.0902C40.9192 23.3175 38.5204 20.8018 35.2575 20.4712Z" fill="#3C889A"/>
</g>
</svg>
