<svg width="69" height="64" viewBox="0 0 69 64" fill="none" xmlns="http://www.w3.org/2000/svg">
<g id="Group 189">
<path id="Vector" d="M4.79457 16.8062C6.04609 15.0676 12.2414 20.969 19.405 18.2819C26.763 15.5186 26.0304 7.11034 34.3665 3.67448C34.8616 3.47315 40.8573 1.103 46.746 3.76863C53.7387 6.92528 56.9451 15.5211 56.2966 22.2671C55.2941 32.7548 44.834 40.2487 35.5832 41.4722C16.4686 44.0298 2.62501 19.8245 4.79457 16.8062Z" fill="#5FB5C9"/>
<path id="Vector_2" d="M52.3006 12.8433L52.7102 17.8165C52.8046 18.9626 53.9981 19.6871 55.0649 19.238L63.9967 15.4821C65.5968 14.8085 65.2727 12.4572 63.5589 12.2371L54.2174 11.0198C53.1421 10.8776 52.2219 11.7661 52.3106 12.8425L52.3006 12.8433Z" fill="#E86C56"/>
<path id="Vector_3" d="M43.2034 18.3064C40.0617 18.4147 39.0158 21.3103 35.019 24.5593C27.7111 30.4892 20.9475 29.1398 20.7543 31.4234C20.52 34.182 30.1422 39.6606 38.7191 37.0779C45.27 35.1135 51.5572 28.3646 50.0681 23.3199C49.2594 20.5669 46.1051 18.2079 43.1934 18.3072L43.2034 18.3064Z" fill="#54A1B4"/>
<path id="Vector_4" d="M57.6248 26.8775L57.6223 26.9174C57.5579 27.9655 57.4542 29.001 57.3117 30.0142C55.0742 46.3677 43.3352 58.5405 30.0104 57.7214C16.6855 56.9023 6.53579 43.3842 6.30799 26.8791C6.30336 26.6283 6.29874 26.3776 6.3041 26.1274L17.4094 20.1876C18.2904 19.7107 19.3683 19.777 20.2054 20.3394L30.7822 27.5619C31.5999 28.1132 32.6473 28.1876 33.527 27.7307L45.3366 21.7439C46.1121 21.3508 47.0335 21.3573 47.8105 21.7557L57.6254 26.8675L57.6248 26.8775Z" fill="white"/>
</g>
</svg>
