<svg width="67" height="36" viewBox="0 0 67 36" fill="none" xmlns="http://www.w3.org/2000/svg">
<g id="Capa_1" clip-path="url(#clip0_411_786)">
<path id="Vector" d="M27.1113 23.0255C16.7986 23.5119 13.3314 30.4009 7.47408 27.9476C4.03688 26.5062 1.83607 22.7076 1.47027 19.2549C1.03345 15.1618 3.17549 11.083 6.18669 8.87948C11.2302 5.18935 14.9607 9.49797 25.7281 7.08548C31.0117 5.90231 32.5328 4.32284 38.7806 3.7133C42.4023 3.36042 47.2557 2.88446 48.7215 5.29045C48.7452 5.32969 48.8298 5.47895 48.9581 5.81053C50.1466 8.90851 49.0167 12.4664 48.2157 14.5897C46.1935 19.9645 45.1795 22.6524 43.0934 24.0371C38.8211 26.8722 35.4917 22.6292 27.1049 23.0234L27.1113 23.0255Z" fill="#668DEF"/>
<path id="Vector_2" d="M54.0282 2.79724C54.8006 1.84176 56.0858 0.977858 58.029 0.682691C60.6207 0.288003 61.7437 0.770642 62.538 1.51991C63.8715 2.78049 63.2813 6.1112 61.4771 7.94891C59.2339 10.2338 55.0097 10.3181 53.7266 8.61294C53.1415 7.83757 53.1793 6.71402 53.2089 5.7922C53.2366 4.90101 53.2763 3.72555 54.0282 2.79724Z" fill="#668DEF"/>
<path id="Vector_3" d="M52.0091 14.1459C52.4465 12.836 54.4628 12.4334 55.8354 12.71C56.0293 12.7498 57.7655 13.1277 58.4247 14.6525C58.5366 14.9104 58.9133 15.7816 58.5198 16.6205C58.0769 17.5635 56.9698 17.7968 56.5358 17.8877C55.2989 18.1482 53.8066 17.7758 52.856 16.6898C52.6572 16.4622 51.6269 15.284 52.0062 14.1463L52.0091 14.1459Z" fill="#668DEF"/>
<path id="Vector_4" d="M49.5714 22.2711C49.9056 21.2673 51.4517 20.9576 52.5053 21.1693C52.6554 21.2 53.9841 21.4889 54.4905 22.6581C54.5758 22.8559 54.8663 23.5234 54.5637 24.1642C54.2237 24.8862 53.3765 25.0651 53.043 25.1359C52.0952 25.3349 50.9525 25.0505 50.2258 24.2189C50.074 24.0455 49.2829 23.1439 49.5744 22.2707L49.5714 22.2711Z" fill="#668DEF"/>
<path id="Vector_5" d="M44.9396 27.4536C45.2139 26.6313 46.4794 26.379 47.3424 26.5534C47.4645 26.579 48.555 26.8159 48.968 27.7733C49.039 27.9336 49.2733 28.4813 49.0276 29.0078C48.7485 29.5998 48.0547 29.7451 47.7804 29.8046C47.0039 29.9676 46.0687 29.7333 45.4696 29.0541C45.3466 28.9132 44.6962 28.1712 44.937 27.457L44.9396 27.4536Z" fill="#668DEF"/>
</g>
<defs>
<clipPath id="clip0_411_786">
<rect width="63.4108" height="27.4512" fill="white" transform="translate(0 8.75415) rotate(-7.93526)"/>
</clipPath>
</defs>
</svg>
