<svg width="62" height="53" viewBox="0 0 62 53" fill="none" xmlns="http://www.w3.org/2000/svg">
<g id="Group 190">
<path id="Vector" d="M31.0301 39.9699C38.5964 39.9699 44.7301 33.8362 44.7301 26.2699C44.7301 18.7036 38.5964 12.5699 31.0301 12.5699C23.4638 12.5699 17.3301 18.7036 17.3301 26.2699C17.3301 33.8362 23.4638 39.9699 31.0301 39.9699Z" fill="#A5B1D1"/>
<path id="Vector_2" d="M17.3695 9.49L16.4395 2.68C16.1795 0.770003 18.4395 -0.429997 19.8795 0.860003L25.0095 5.47C26.0895 6.44 25.8695 8.18 24.5895 8.85L20.3895 11.05C19.1195 11.72 17.5695 10.92 17.3795 9.49H17.3695Z" fill="#E86C56"/>
<path id="Vector_3" d="M53.4402 20.9201L59.9002 23.2501C61.7102 23.9101 61.7302 26.4701 59.9202 27.1401L53.4602 29.5501C52.1102 30.0601 50.6602 29.0501 50.6602 27.6101V22.8701C50.6602 21.4301 52.0902 20.4301 53.4402 20.9201Z" fill="#E86C56"/>
<path id="Vector_4" d="M44.6896 43.06L45.6196 49.87C45.8796 51.78 43.6196 52.98 42.1796 51.69L37.0496 47.08C35.9696 46.11 36.1896 44.37 37.4696 43.7L41.6696 41.5C42.9396 40.83 44.4896 41.63 44.6796 43.06H44.6896Z" fill="#E86C56"/>
<path id="Vector_5" d="M7.83047 29.56L1.37047 27.23C-0.439529 26.57 -0.459529 24.01 1.35047 23.34L7.81047 20.93C9.16047 20.42 10.6105 21.43 10.6105 22.87V27.61C10.6105 29.05 9.18047 30.05 7.83047 29.56Z" fill="#E86C56"/>
<path id="Vector_6" d="M40.51 4.23001L46.19 0.370008C47.79 -0.719992 49.87 0.780008 49.35 2.64001L47.51 9.29001C47.12 10.68 45.47 11.26 44.3 10.42L40.46 7.64001C39.3 6.80001 39.32 5.06001 40.51 4.25001V4.23001Z" fill="#E86C56"/>
<path id="Vector_7" d="M20.7603 46.24L15.0803 50.1C13.4803 51.19 11.4003 49.69 11.9203 47.83L13.7603 41.18C14.1503 39.79 15.8003 39.21 16.9703 40.05L20.8103 42.83C21.9703 43.67 21.9503 45.41 20.7603 46.22V46.24Z" fill="#E86C56"/>
</g>
</svg>
