<svg width="51" height="32" viewBox="0 0 51 32" fill="none" xmlns="http://www.w3.org/2000/svg">
<g id="Group 188">
<path id="Vector" d="M25.5002 31.3008C39.5835 31.3008 51.0003 26.4794 51.0003 20.5319C51.0003 14.5844 39.5835 9.76294 25.5002 9.76294C11.4168 9.76294 0 14.5844 0 20.5319C0 26.4794 11.4168 31.3008 25.5002 31.3008Z" fill="#E86C56"/>
<path id="Vector_2" d="M43.3135 15.2521V19.6735C40.2589 21.2688 33.7024 24.1746 24.9394 24.0448C16.805 23.9275 10.7126 21.2562 7.6875 19.6735V15.2521C10.7126 16.8348 16.805 19.5061 24.9394 19.6233C33.7024 19.7531 40.2589 16.8473 43.3135 15.2521Z" fill="#9B3637"/>
<path id="Vector_3" d="M43.3135 6.4259V15.2521C40.2589 16.8473 33.7024 19.7531 24.9394 19.6233C16.805 19.5061 10.7126 16.8348 7.6875 15.2521V6.4259C7.6875 10.5794 15.6616 13.9499 25.5005 13.9499C35.3394 13.9499 43.3135 10.5794 43.3135 6.4259Z" fill="#E86C56"/>
<path id="Vector_4" d="M43.3135 6.37142V6.42585C43.3135 10.5793 35.3394 13.9499 25.5005 13.9499C15.6616 13.9499 7.6875 10.5793 7.6875 6.42585C7.6875 6.1537 7.72125 5.88573 7.78876 5.62195C7.85204 5.37073 9.49327 2.44402 12.6956 1.20048C16.8851 -0.424072 18.8217 2.7413 25.0617 2.83341C31.6772 2.92552 33.7108 -0.570616 38.3054 1.20048C39.0733 1.49776 42.5667 2.84178 43.2122 5.62195C43.2122 5.63451 43.2249 5.67219 43.2333 5.72244C43.2544 5.82292 43.284 5.98203 43.3008 6.14951C43.3008 6.19138 43.3093 6.23744 43.3093 6.27931C43.3093 6.30861 43.3093 6.34211 43.3093 6.37142H43.3135Z" fill="#E86C56"/>
</g>
</svg>
