<svg width="56" height="76" viewBox="0 0 56 76" fill="none" xmlns="http://www.w3.org/2000/svg">
<g opacity="0.22">
<path d="M55.0906 16.3796L49.4527 19.7946C49.2108 19.9405 48.9075 19.9386 48.6676 19.785L47.5254 19.0575L33.6082 10.2637C33.3701 10.114 33.0668 10.1102 32.825 10.256L24.9507 15.034L15.6195 20.6834L13.3255 22.0732C12.2525 22.7239 11.596 23.8872 11.596 25.1427V50.209L11.8167 57.9143L11.9069 61.2161V63.0858C11.9069 63.1433 11.9127 63.2009 11.9242 63.2566C12.2122 64.6733 13.0549 65.8423 14.2661 66.4624C16.1819 67.4759 18.3492 66.7945 19.5028 65.6389C20.2956 64.8461 20.5356 63.963 20.6162 62.0473L20.6066 40.0446C20.6066 38.9908 20.8811 38.1672 21.4359 37.5818C21.7296 37.2708 21.6394 36.7774 21.3073 36.5106C19.7562 35.2629 18.9135 33.2031 19.3531 30.9956C19.7946 28.8475 21.5204 27.1026 23.6569 26.6515C27.2888 25.8894 30.5291 28.6383 30.5291 32.1704C30.5291 33.7464 29.8784 35.1611 28.836 36.1747C28.4847 36.5164 28.5231 37.0884 28.9358 37.3514C28.9416 37.3552 28.9454 37.3572 28.9512 37.361C29.1662 37.4973 29.2948 37.7334 29.2948 37.9868V41.0716C29.2948 41.3192 29.4138 41.5534 29.6231 41.6897C30.6021 42.327 31.9842 43.0488 33.6466 43.498C33.9748 43.5863 34.2109 43.8762 34.2109 44.2159V50.95C34.2109 51.4049 33.804 51.7639 33.3567 51.6852C32.2568 51.4951 31.2259 51.2206 30.268 50.8904C29.7881 50.7254 29.2948 51.0843 29.291 51.5892L29.2353 65.1167C29.2046 66.1207 29.0337 67.7159 28.312 69.3207C28.2928 69.361 28.2716 69.4109 28.2525 69.4512C27.8704 70.2939 27.3291 71.1366 26.5766 71.8891C26.3655 72.1003 26.1543 72.2807 25.9355 72.4516C24.6704 73.4651 23.2768 73.9162 21.7123 74.4691C20.4473 74.8396 17.1168 75.9241 12.7727 75.2523C10.114 74.8415 6.45139 74.2483 4.20544 71.1789C3.49326 70.2056 3.01144 69.0423 2.71006 67.808L2.63903 67.3569C2.52961 66.7253 2.4893 66.2032 2.4893 65.7924V54.6049C2.4893 54.173 2.4701 53.7622 2.43939 53.3706C2.40868 48.4852 2.38948 42.8569 2.37988 39.1846V35.9443C2.37988 34.3472 2.43939 32.7923 2.56801 31.295C2.56801 31.2777 2.56992 31.2605 2.56992 31.2432V22.4302C2.56992 19.7217 4.03459 17.1532 6.38228 15.7289L7.48606 15.057L26.2369 3.68904L29.0261 1.99402C31.6348 0.418018 34.9865 0.448732 37.5549 2.07465L55.1232 13.1911C56.3076 13.934 56.2865 15.6598 55.0925 16.3815L55.0906 16.3796Z" fill="#000"/>
<path d="M53.0843 39.4546V71.7214C53.0843 73.2667 51.8308 74.5202 50.2855 74.5202H45.2581C44.6169 74.5202 44.0948 74.0076 44.0948 73.3665V50.3004C42.5898 50.9031 40.8833 51.3946 39.0078 51.6249V43.1671C41.1943 42.6853 42.9699 41.7024 44.0948 40.9288V37.3967C44.0948 37.0954 44.2445 36.8151 44.496 36.6538C44.8377 36.4235 45.2792 36.1413 45.3694 36.1029C43.8337 35.0586 42.8202 33.3041 42.8202 31.3077C42.8202 27.6451 46.1718 24.806 49.9227 25.5988C52.1399 26.071 53.9251 27.8754 54.3782 30.0926C54.9099 32.7417 53.6449 35.1988 51.5179 36.364C52.5622 36.9456 53.0824 37.9803 53.0824 39.4546H53.0843Z" fill="#000"/>
</g>
<path d="M52.7126 15.5483L48.2322 18.2607C47.8925 18.4661 47.403 18.5198 46.9115 18.5064C45.9575 18.4776 45.0342 18.1551 44.2279 17.6464L31.2302 9.43431C30.9922 9.28458 30.6889 9.28074 30.447 9.42663L22.5727 14.2046L13.2415 19.854L10.9476 21.2438C9.8745 21.8945 9.21799 23.0578 9.21799 24.3132V49.3796L9.43874 57.0849L9.52897 60.3866V62.2563C9.52897 62.3139 9.53472 62.3715 9.54624 62.4272C9.83418 63.8439 10.6769 65.0148 11.8882 65.6349C13.8039 66.6484 15.9712 65.967 17.1249 64.8113C17.9177 64.0185 18.1576 63.1355 18.2383 61.2197L18.2287 39.2171C18.2287 38.1633 18.5032 37.3397 19.0579 36.7543C19.3516 36.4433 19.2614 35.9499 18.9293 35.6831C17.3783 34.4354 16.5356 32.3756 16.9751 30.1681C17.4167 28.02 19.1424 26.2751 21.2789 25.824C24.9108 25.0619 28.1511 27.8108 28.1511 31.3429C28.1511 32.9189 27.5004 34.3336 26.458 35.3472C26.1068 35.6889 26.1451 36.2609 26.5579 36.5239C26.5636 36.5277 26.5675 36.5297 26.5732 36.5335C26.7882 36.6698 26.9168 36.9059 26.9168 37.1593V40.2441C26.9168 40.4917 27.0358 40.7259 27.2432 40.8622C28.2222 41.4995 29.6043 42.2213 31.2667 42.6705C31.5949 42.7588 31.831 43.0487 31.831 43.3884V50.1225C31.831 50.5774 31.4241 50.9364 30.9768 50.8577C29.8769 50.6676 28.846 50.3931 27.8882 50.0629C27.4083 49.8979 26.9149 50.2568 26.9111 50.7617L26.8554 64.2892C26.8247 65.2932 26.6538 66.8884 25.9321 68.4932C25.9129 68.5335 25.8918 68.5834 25.8726 68.6237C25.4906 69.4664 24.9492 70.3091 24.1967 71.0616C23.9856 71.2728 23.7744 71.4532 23.5556 71.6241C22.2906 72.6376 20.8969 73.0887 19.3324 73.6416C18.0674 74.0121 14.7369 75.0966 10.3928 74.4248C7.73413 74.014 4.0715 73.4208 1.82555 70.3513C1.11338 69.3781 0.631553 68.2148 0.330174 66.9805L0.259148 66.5294C0.14973 65.8978 0.109418 65.3757 0.109418 64.9649V53.7774C0.109418 53.3455 0.0902219 52.9347 0.059508 52.5431C0.0287942 47.6577 0.00959807 42.0294 0 38.3571V35.1168C0 33.5216 0.059508 31.9648 0.188122 30.4694C0.188122 30.4522 0.190042 30.4349 0.190042 30.4157V21.6027C0.190042 18.8942 1.65471 16.3257 4.0024 14.9014L5.10617 14.2295L23.8589 2.85579L26.6481 1.16077C29.2568 -0.415234 32.6085 -0.38452 35.1769 1.24139L52.7452 12.3579C53.9296 13.1008 53.9085 14.8265 52.7145 15.5483H52.7126Z" fill="#000"/>
<path d="M50.7064 38.6232V70.89C50.7064 72.4353 49.4529 73.6888 47.9076 73.6888H42.8705C42.2332 73.6888 41.7169 73.1724 41.7169 72.5351V49.469C40.5286 49.9432 39.2175 50.3501 37.7951 50.6131C37.1923 50.7244 36.6299 50.2676 36.6299 49.6533V43.069C36.6299 42.6371 36.9274 42.2724 37.344 42.1553C39.2041 41.6351 40.7187 40.7828 41.7169 40.0955V36.5635C41.7169 36.2698 41.8608 35.9952 42.1027 35.8302C42.4463 35.5979 42.8993 35.3099 42.9896 35.2677C41.4539 34.2234 40.4403 32.4689 40.4403 30.4725C40.4403 26.8099 43.792 23.9708 47.5429 24.7636C49.76 25.2358 51.5453 27.0402 51.9983 29.2574C52.53 31.9065 51.265 34.3636 49.1381 35.5288C50.1824 36.1104 50.7026 37.1451 50.7026 38.6194L50.7064 38.6232Z" fill="#000"/>
</svg>
