<svg width="132" height="150" viewBox="0 0 132 150" fill="none" xmlns="http://www.w3.org/2000/svg">
<path d="M16.2603 112.295H16.6692V111.811L16.2603 112.295Z" fill="#E8EBFF"/>
<path d="M74.8956 7.48349C69.5086 11.5731 66.4485 17.463 66.4485 25.0217V52.516L66.3498 21.1625C66.3498 13.6461 61.9311 10.177 56.0224 10.177C49.5307 10.177 44.9005 13.7213 44.9005 21.9005V42.325C41.375 41.1216 37.3606 40.4447 32.9467 40.3084V21.1625C32.9467 13.6461 28.9558 10.177 23.0659 10.177C16.7294 10.177 12.0005 13.7213 12.0005 21.9005V40.2707H0.0654297V0.874327H11.6338V7.22965C14.7363 2.65589 20.0433 0 26.9016 0C33.7599 0 39.4383 2.7123 42.3058 7.5963C45.8501 2.65589 51.8999 0 58.9885 0C66.0771 0 71.6239 2.53837 74.8956 7.47879V7.48349Z" fill="#E8EBFF"/>
<path d="M16.2603 112.295H16.6692V111.811L16.2603 112.295Z" fill="white"/>
<path d="M61.64 59.4496C59.567 51.1952 53.6583 45.2253 44.8962 42.3203C41.3707 41.1169 37.3563 40.44 32.9424 40.3037C32.3595 40.2661 31.7813 40.2661 31.1796 40.2661H0V112.29H16.2597L16.6686 111.806V92.4296H31.1843C31.9223 92.4296 32.6556 92.4108 33.3748 92.3732C51.3362 91.654 62.458 81.8295 62.458 66.4066C62.458 63.9434 62.1853 61.6213 61.6447 59.4496H61.64ZM30.2489 78.8493H16.6639V53.8511H30.2489C40.44 53.8511 45.5778 58.4813 45.5778 66.4066C45.5778 74.332 40.4447 78.8446 30.2489 78.8446V78.8493Z" fill="#668DEF"/>
<path d="M132 53.2683V94.5638H125.254C119.656 88.1098 110.856 84.7394 100.063 84.7394C99.678 84.7394 99.2878 84.7394 98.9023 84.7582C108.341 84.6407 115.2 80.222 115.2 70.8254V53.2683H132Z" fill="#E8EBFF"/>
<path d="M98.3006 84.7766C89.8535 85.068 82.7226 87.5077 77.5095 91.9639C71.173 88.5935 67.2996 82.7976 66.5616 74.8534L35.9085 111.091L68.1505 145.679V149.669H53.0566L25.3649 122.33L16.0058 132.075V149.669H0V112.29H16.0058V112.581L16.2597 112.29H16.6686V111.805L33.3701 92.3682C51.3314 91.649 62.4532 81.8245 62.4532 66.4016C62.4532 63.9384 62.1806 61.6163 61.64 59.4446L66.4441 53.8461V53.2632H83.2444V71.6711C83.2444 80.5271 89.2706 84.7107 98.3006 84.7719V84.7766Z" fill="#E8EBFF"/>
<path d="M99.3867 0.756348C89.1533 0.756348 80.6874 3.06438 74.8915 7.47832C69.5045 11.5679 66.4443 17.4579 66.4443 25.0166V53.2677H83.2446V40.8861H115.176V53.2677H131.995V25.0166C131.995 9.32099 119.068 0.756348 99.382 0.756348H99.3867ZM115.684 31.2967H82.8591V23.9119C82.8591 15.1357 89.332 10.9474 99.2739 10.9474C109.216 10.9474 115.689 15.131 115.689 23.9119V31.2967H115.684Z" fill="#668DEF"/>
<path d="M125.254 94.5637C119.656 88.1097 110.856 84.7393 100.063 84.7393C99.6779 84.7393 99.2877 84.7393 98.9023 84.7581C98.6907 84.7581 98.4933 84.7581 98.3006 84.7769C89.8534 85.0683 82.7225 87.508 77.5095 91.9642C71.5819 97.041 68.1504 104.694 68.1504 114.734V149.67H84.0575V134.36H115.895V149.67H132V114.734C132 106.287 129.579 99.5229 125.254 94.5637ZM115.895 122.486H84.0575V113.381C84.0575 102.531 90.3141 97.3183 99.9646 97.3183C109.615 97.3183 115.891 102.531 115.891 113.381V122.486H115.895Z" fill="#668DEF"/>
</svg>
