<svg width="31" height="27" viewBox="0 0 31 27" fill="none" xmlns="http://www.w3.org/2000/svg">
<path id="Vector" d="M30.8917 4.77675C30.7341 3.83464 29.7997 3.12569 28.7148 3.12569H23.9529V2.56483C23.9529 1.14692 22.6497 0 21.0421 0H10.0575C8.45352 0 7.14669 1.14692 7.14669 2.56168V3.12253H2.29171C1.21044 3.12253 0.275965 3.83149 0.114848 4.7736C-0.0999736 6.04971 -0.300474 9.31719 2.35974 12.0585C4.17856 13.9332 6.45209 14.6706 7.95227 14.9604C9.08366 17.0495 11.2999 18.6029 13.9565 19.0471V24.2808H10.7056C9.85344 24.2808 9.16243 24.8889 9.16243 25.642C9.16243 26.395 9.85344 27 10.7056 27H20.3009C21.1531 27 21.8441 26.3919 21.8441 25.642C21.8441 25.267 21.6722 24.9267 21.3894 24.6778C21.1101 24.432 20.7234 24.2776 20.2974 24.2776H17.0464V19.0629C19.7532 18.6344 22.0088 17.0621 23.1509 14.9352C24.6511 14.6327 26.8673 13.8891 28.6432 12.0553C31.3034 9.31404 31.0993 6.04656 30.8845 4.77045L30.8917 4.77675ZM4.71204 10.294C3.23335 8.76263 3.04001 6.96032 3.10445 5.84491H7.14669V11.7906C7.14669 11.8221 7.14669 11.8537 7.14669 11.882C6.3411 11.5669 5.46391 11.0722 4.70846 10.2971L4.71204 10.294ZM26.2945 10.294C25.5677 11.0407 24.7299 11.526 23.9529 11.8474V5.84491H27.9021C27.9665 6.96347 27.7732 8.76578 26.2945 10.294Z" fill="#9C65E8"/>
</svg>
