<svg width="25" height="25" viewBox="0 0 25 25" fill="none" xmlns="http://www.w3.org/2000/svg">
<path id="Vector" d="M24.6667 12.3333C24.6667 11.4819 23.9764 10.7917 23.125 10.7917H7.11169C6.66624 10.7917 6.44315 10.2531 6.75814 9.93811L13.4279 3.26834C14.0318 2.66444 14.0301 1.6848 13.424 1.08303C12.821 0.484273 11.8473 0.485993 11.2465 1.08688L1.41421 10.9191C0.633165 11.7002 0.633165 12.9665 1.41421 13.7475L11.246 23.5793C11.8465 24.1798 12.8202 24.1798 13.4207 23.5793C14.0208 22.9792 14.0213 22.0062 13.4217 21.4056L6.75629 14.7282C6.44175 14.4131 6.66493 13.875 7.11016 13.875H23.125C23.9764 13.875 24.6667 13.1848 24.6667 12.3333Z" fill="#A5B1D1"/>
</svg>
