<svg width="27" height="29" viewBox="0 0 27 29" fill="none" xmlns="http://www.w3.org/2000/svg">
<g id="Group">
<path id="Vector" d="M23.6296 2.9H22.1528V1C22.1528 0.447715 21.7051 0 21.1528 0H20.1991C19.6468 0 19.1991 0.447715 19.1991 1V1.9C19.1991 2.45229 18.7514 2.9 18.1991 2.9H7.38426V1C7.38426 0.447715 6.93654 0 6.38426 0H5.43056C4.87827 0 4.43056 0.447715 4.43056 1V2.9H2.9537C1.3144 2.9 0.0147685 4.205 0.0147685 5.8L0 26.1C0 27.695 1.3144 29 2.9537 29H23.6296C25.2542 29 26.5833 27.695 26.5833 26.1V5.8C26.5833 4.205 25.2542 2.9 23.6296 2.9ZM23.6296 25.1C23.6296 25.6523 23.1819 26.1 22.6296 26.1H3.9537C3.40142 26.1 2.9537 25.6523 2.9537 25.1V12.6C2.9537 12.0477 3.40142 11.6 3.9537 11.6H22.6296C23.1819 11.6 23.6296 12.0477 23.6296 12.6V25.1ZM8.86111 16.4C8.86111 16.9523 8.4134 17.4 7.86111 17.4H6.90741C6.35512 17.4 5.90741 16.9523 5.90741 16.4V15.5C5.90741 14.9477 6.35512 14.5 6.90741 14.5H7.86111C8.4134 14.5 8.86111 14.9477 8.86111 15.5V16.4ZM14.7685 16.4C14.7685 16.9523 14.3208 17.4 13.7685 17.4H12.8148C12.2625 17.4 11.8148 16.9523 11.8148 16.4V15.5C11.8148 14.9477 12.2625 14.5 12.8148 14.5H13.7685C14.3208 14.5 14.7685 14.9477 14.7685 15.5V16.4ZM20.6759 16.4C20.6759 16.9523 20.2282 17.4 19.6759 17.4H18.7222C18.1699 17.4 17.7222 16.9523 17.7222 16.4V15.5C17.7222 14.9477 18.1699 14.5 18.7222 14.5H19.6759C20.2282 14.5 20.6759 14.9477 20.6759 15.5V16.4ZM8.86111 22.2C8.86111 22.7523 8.4134 23.2 7.86111 23.2H6.90741C6.35512 23.2 5.90741 22.7523 5.90741 22.2V21.3C5.90741 20.7477 6.35512 20.3 6.90741 20.3H7.86111C8.4134 20.3 8.86111 20.7477 8.86111 21.3V22.2ZM14.7685 22.2C14.7685 22.7523 14.3208 23.2 13.7685 23.2H12.8148C12.2625 23.2 11.8148 22.7523 11.8148 22.2V21.3C11.8148 20.7477 12.2625 20.3 12.8148 20.3H13.7685C14.3208 20.3 14.7685 20.7477 14.7685 21.3V22.2ZM20.6759 22.2C20.6759 22.7523 20.2282 23.2 19.6759 23.2H18.7222C18.1699 23.2 17.7222 22.7523 17.7222 22.2V21.3C17.7222 20.7477 18.1699 20.3 18.7222 20.3H19.6759C20.2282 20.3 20.6759 20.7477 20.6759 21.3V22.2Z" fill="#5FB5C9"/>
</g>
</svg>
