<svg width="34" height="34" viewBox="0 0 34 34" fill="none" xmlns="http://www.w3.org/2000/svg">
<g id="edit icon">
<path id="Vector" d="M33 17C33 25.8366 25.8366 33 17 33C8.16344 33 1 25.8366 1 17C1 8.16344 8.16344 1 17 1C25.8366 1 33 8.16344 33 17Z" fill="#DC4F51" stroke="#A5B1D1" stroke-width="2"/>
<g id="Group">
<path id="Vector_2" d="M16.6241 22.1946L16.3868 22.4319C16.3868 22.4319 16.3572 22.4616 16.3374 22.4715C16.288 22.5209 16.2286 22.5506 16.1594 22.5802L14.0042 23.2723L11.0481 24.2214C10.6329 24.3499 10.2374 23.9544 10.3758 23.5491L11.3249 20.593L12.017 18.4279C12.0367 18.3883 12.0367 18.3587 12.0565 18.3191C12.0565 18.3191 12.1356 18.2202 12.185 18.1708L12.4026 17.9533C13.3022 18.1412 14.8346 18.6454 15.8233 20.0987C16.3176 20.8303 16.5351 21.5916 16.6142 22.1946H16.6241Z" fill="#A5B1D1"/>
<path id="Vector_3" d="M24.9192 12.6167C24.9192 13.3878 24.6127 14.1491 24.0294 14.7324L17.9591 20.8027C17.791 20.1305 17.5142 19.4977 17.1385 18.9441C16.1597 17.5006 14.7657 16.8679 13.7178 16.5812L19.8079 10.4911C20.9745 9.31458 22.8628 9.31458 24.0294 10.4911C24.6226 11.0744 24.9093 11.8455 24.9192 12.6068V12.6167Z" fill="#A5B1D1"/>
</g>
</g>
</svg>
