<svg width="15" height="16" viewBox="0 0 15 16" fill="none" xmlns="http://www.w3.org/2000/svg">
<path d="M6.6241 13.1946L6.38683 13.4319C6.38683 13.4319 6.35717 13.4616 6.33739 13.4715C6.28796 13.5209 6.22864 13.5505 6.15944 13.5802L4.00417 14.2723L1.04809 15.2214C0.63286 15.3499 0.237398 14.9544 0.37581 14.5491L1.32492 11.593L2.01698 9.42786C2.03675 9.38832 2.03675 9.35866 2.05652 9.31911C2.05652 9.31911 2.13561 9.22024 2.18505 9.17081L2.40255 8.95331C3.30223 9.14115 4.83464 9.64537 5.82329 11.0987C6.31762 11.8303 6.53513 12.5916 6.61422 13.1946H6.6241Z" fill="#A5B1D1"/>
<path d="M14.9192 3.61668C14.9192 4.38783 14.6127 5.1491 14.0294 5.7324L7.9591 11.8027C7.79103 11.1305 7.51421 10.4977 7.13852 9.94407C6.15975 8.50063 4.76575 7.8679 3.71777 7.58119L9.80788 1.49108C10.9745 0.314579 12.8628 0.314579 14.0294 1.49108C14.6226 2.07438 14.9093 2.84553 14.9192 3.6068V3.61668Z" fill="#A5B1D1"/>
</svg>
