<svg width="30" height="30" viewBox="0 0 30 30" fill="none" xmlns="http://www.w3.org/2000/svg">
<g id="Lock" clip-path="url(#clip0_78_746)">
<path id="Vector" d="M20.375 12.6667H19.5625V11.0476C19.5625 8.81333 17.7425 7 15.5 7C13.2575 7 11.4375 8.81333 11.4375 11.0476V12.6667H10.625C9.73125 12.6667 9 13.3952 9 14.2857V22.381C9 23.2714 9.73125 24 10.625 24H20.375C21.2688 24 22 23.2714 22 22.381V14.2857C22 13.3952 21.2688 12.6667 20.375 12.6667ZM15.5 19.9524C14.6062 19.9524 13.875 19.2238 13.875 18.3333C13.875 17.4429 14.6062 16.7143 15.5 16.7143C16.3938 16.7143 17.125 17.4429 17.125 18.3333C17.125 19.2238 16.3938 19.9524 15.5 19.9524ZM18.0188 12.6667H12.9812V11.0476C12.9812 9.66333 14.1106 8.5381 15.5 8.5381C16.8894 8.5381 18.0188 9.66333 18.0188 11.0476V12.6667Z" fill="#A5B1D1"/>
</g>
<defs>
<clipPath id="clip0_78_746">
<rect width="30" height="30" fill="white"/>
</clipPath>
</defs>
</svg>
