<svg width="30" height="30" viewBox="0 0 30 30" fill="none" xmlns="http://www.w3.org/2000/svg">
<g id="Logout" clip-path="url(#clip0_78_759)">
<path id="Vector" d="M9.87277 11.175C10.2204 10.8317 10.7796 10.8317 11.1272 11.175C11.4806 11.524 11.4811 12.0943 11.1285 12.444L9.447 14.1111H17.7111C18.202 14.1111 18.6 14.5091 18.6 15C18.6 15.4909 18.202 15.8889 17.7111 15.8889H9.447L11.1266 17.5478C11.4805 17.8973 11.4815 18.4682 11.1289 18.8189C10.7806 19.1653 10.2184 19.1663 9.86893 18.8212L6 15L9.87277 11.175ZM22.2 8.77778H15.8889C15.398 8.77778 15 8.37981 15 7.88889C15 7.39797 15.398 7 15.8889 7H22.2C23.19 7 24 7.8 24 8.77778V21.2222C24 22.2 23.19 23 22.2 23H15.8889C15.398 23 15 22.602 15 22.1111C15 21.6202 15.398 21.2222 15.8889 21.2222H22.2V8.77778Z" fill="#A5B1D1"/>
</g>
<defs>
<clipPath id="clip0_78_759">
<rect width="30" height="30" fill="white" transform="matrix(-1 0 0 1 30 0)"/>
</clipPath>
</defs>
</svg>
