<svg width="122" height="122" viewBox="0 0 122 122" fill="none" xmlns="http://www.w3.org/2000/svg">
<circle cx="60.9084" cy="60.9084" r="60.9084" fill="#E9F4FF"/>
<mask id="mask0_377_713" style="mask-type:alpha" maskUnits="userSpaceOnUse" x="0" y="0" width="122" height="122">
<circle cx="60.9084" cy="60.9084" r="60.9084" fill="#E9E9E9"/>
</mask>
<g mask="url(#mask0_377_713)">
<path d="M74.5808 67.1227C82.7557 62.8321 86.1631 54.8166 86.1631 45.6341C86.1631 31.9135 76.0234 20.7979 60.8954 20.7979C45.7673 20.7979 35.6537 31.9135 35.6537 45.6341C35.6537 54.8284 39.035 62.8321 47.2099 67.1227C35.8509 67.4056 26.7402 75.8337 26.7402 86.1949V117.644C26.7402 119.942 28.7937 121.817 31.341 121.817H90.4757C93.01 121.817 95.0765 119.954 95.0765 117.644V86.1949C95.0765 75.8219 85.9659 67.4056 74.6068 67.1227H74.5808Z" fill="#5D6F9D"/>
</g>
</svg>
