<svg width="31" height="27" viewBox="0 0 31 27" fill="none" xmlns="http://www.w3.org/2000/svg">
<path id="Vector" d="M26.35 27C25.3425 27 24.4383 26.719 23.6375 26.157C22.8367 25.594 22.2812 24.875 21.9712 24H13.95C12.245 24 10.7854 23.4125 9.57125 22.2375C8.35708 21.0625 7.75 19.65 7.75 18C7.75 16.35 8.35708 14.9375 9.57125 13.7625C10.7854 12.5875 12.245 12 13.95 12H17.05C17.9025 12 18.6325 11.706 19.2402 11.118C19.8467 10.531 20.15 9.825 20.15 9C20.15 8.175 19.8467 7.4685 19.2402 6.8805C18.6325 6.2935 17.9025 6 17.05 6H9.02875C8.69292 6.875 8.1313 7.594 7.3439 8.157C6.55547 8.719 5.6575 9 4.65 9C3.35833 9 2.26042 8.5625 1.35625 7.6875C0.452083 6.8125 0 5.75 0 4.5C0 3.25 0.452083 2.1875 1.35625 1.3125C2.26042 0.4375 3.35833 0 4.65 0C5.6575 0 6.55547 0.281 7.3439 0.843C8.1313 1.406 8.69292 2.125 9.02875 3H17.05C18.755 3 20.2146 3.5875 21.4287 4.7625C22.6429 5.9375 23.25 7.35 23.25 9C23.25 10.65 22.6429 12.0625 21.4287 13.2375C20.2146 14.4125 18.755 15 17.05 15H13.95C13.0975 15 12.368 15.2935 11.7614 15.8805C11.1538 16.4685 10.85 17.175 10.85 18C10.85 18.825 11.1538 19.5315 11.7614 20.1195C12.368 20.7065 13.0975 21 13.95 21H21.9712C22.3071 20.125 22.8692 19.406 23.6576 18.843C24.445 18.281 25.3425 18 26.35 18C27.6417 18 28.7396 18.4375 29.6437 19.3125C30.5479 20.1875 31 21.25 31 22.5C31 23.75 30.5479 24.8125 29.6437 25.6875C28.7396 26.5625 27.6417 27 26.35 27ZM4.65 6C5.08917 6 5.45755 5.8565 5.75515 5.5695C6.05172 5.2815 6.2 4.925 6.2 4.5C6.2 4.075 6.05172 3.7185 5.75515 3.4305C5.45755 3.1435 5.08917 3 4.65 3C4.21083 3 3.84245 3.1435 3.54485 3.4305C3.24828 3.7185 3.1 4.075 3.1 4.5C3.1 4.925 3.24828 5.2815 3.54485 5.5695C3.84245 5.8565 4.21083 6 4.65 6Z" fill="#668DEF"/>
</svg>
