<svg width="139" height="139" viewBox="0 0 139 139" fill="none" xmlns="http://www.w3.org/2000/svg">
<g id="Group 167">
<circle id="Ellipse 93" cx="69.5" cy="69.5" r="69.5" fill="#A5B1D1"/>
<g id="Group 166">
<g id="brjla">
<circle id="Ellipse 85" cx="69.9084" cy="69.9084" r="60.9084" fill="#E9F4FF"/>
</g>
<g id="Mask group">
<mask id="mask0_78_768" style="mask-type:alpha" maskUnits="userSpaceOnUse" x="9" y="9" width="122" height="122">
<g id="brjla_2">
<circle id="Ellipse 85_2" cx="69.9084" cy="69.9084" r="60.9084" fill="#E9E9E9"/>
</g>
</mask>
<g mask="url(#mask0_78_768)">
<path id="Vector" d="M83.5808 76.1228C91.7557 71.8321 95.1631 63.8166 95.1631 54.6342C95.1631 40.9135 85.0234 29.7979 69.8954 29.7979C54.7673 29.7979 44.6537 40.9135 44.6537 54.6342C44.6537 63.8284 48.035 71.8321 56.2099 76.1228C44.8509 76.4057 35.7402 84.8337 35.7402 95.1949V126.644C35.7402 128.943 37.7937 130.817 40.341 130.817H99.4757C102.01 130.817 104.076 128.954 104.076 126.644V95.1949C104.076 84.8219 94.9659 76.4057 83.6068 76.1228H83.5808Z" fill="#5D6F9D"/>
</g>
</g>
</g>
</g>
</svg>
