<svg width="63" height="56" viewBox="0 0 63 56" fill="none" xmlns="http://www.w3.org/2000/svg">
<g clip-path="url(#clip0_411_745)">
<path d="M42.4351 53.766L2.80045 28.8978C1.25392 27.9274 1.01215 25.5284 2.2604 23.539L11.3288 9.08575C13.6173 5.43844 18.1885 6.44235 17.698 10.4831L16.0581 23.9651C15.9508 24.8457 16.6891 25.3524 17.4505 24.9217L36.3067 14.2517C38.7549 12.8651 41.1515 14.4281 40.8969 17.2463L39.0033 38.4091C38.9247 39.288 39.6861 39.7578 40.4406 39.2991L53.044 31.6217C56.4525 29.5461 59.2344 33.211 56.9779 36.8073L47.4952 51.9208C46.2469 53.9103 43.9817 54.7363 42.4351 53.766Z" fill="#FFCC79"/>
</g>
<defs>
<clipPath id="clip0_411_745">
<rect width="53.4015" height="32.0409" fill="white" transform="translate(17.0293) rotate(32.1056)"/>
</clipPath>
</defs>
</svg>
