<svg width="30" height="30" viewBox="0 0 30 30" fill="none" xmlns="http://www.w3.org/2000/svg">
<g id="Settings" clip-path="url(#clip0_230_832)">
<g id="Group">
<path id="Vector" d="M21.1169 15.7833C21.1512 15.5333 21.1683 15.275 21.1683 15C21.1683 14.7333 21.1512 14.4667 21.1084 14.2167L22.8475 12.9C23.0017 12.7833 23.0445 12.5583 22.9503 12.3917L21.3054 9.625C21.2026 9.44167 20.9884 9.38333 20.8 9.44167L18.7524 10.2417C18.324 9.925 17.87 9.65833 17.3645 9.45833L17.0561 7.34167C17.0218 7.14167 16.8505 7 16.6449 7H13.3551C13.1495 7 12.9867 7.14167 12.9525 7.34167L12.644 9.45833C12.1386 9.65833 11.6759 9.93333 11.2562 10.2417L9.20861 9.44167C9.02013 9.375 8.80595 9.44167 8.70315 9.625L7.06682 12.3917C6.96402 12.5667 6.99829 12.7833 7.16963 12.9L8.90876 14.2167C8.86592 14.4667 8.83166 14.7417 8.83166 15C8.83166 15.2583 8.84879 15.5333 8.89163 15.7833L7.1525 17.1C6.99829 17.2167 6.95545 17.4417 7.04969 17.6083L8.69458 20.375C8.79739 20.5583 9.01157 20.6167 9.20004 20.5583L11.2476 19.7583C11.6759 20.075 12.13 20.3417 12.6355 20.5417L12.9439 22.6583C12.9867 22.8583 13.1495 23 13.3551 23H16.6449C16.8505 23 17.0218 22.8583 17.0475 22.6583L17.356 20.5417C17.8614 20.3417 18.3241 20.075 18.7438 19.7583L20.7914 20.5583C20.9799 20.625 21.194 20.5583 21.2969 20.375L22.9417 17.6083C23.0445 17.425 23.0017 17.2167 22.8389 17.1L21.1169 15.7833ZM15 18C13.3037 18 11.9158 16.65 11.9158 15C11.9158 13.35 13.3037 12 15 12C16.6963 12 18.0842 13.35 18.0842 15C18.0842 16.65 16.6963 18 15 18Z" fill="#A5B1D1"/>
</g>
</g>
<defs>
<clipPath id="clip0_230_832">
<rect width="30" height="30" fill="white"/>
</clipPath>
</defs>
</svg>
