<svg width="14" height="16" viewBox="0 0 14 16" fill="none" xmlns="http://www.w3.org/2000/svg">
<path id="Vector" d="M12.3173 1.98559H9.17784C9.07555 0.873711 8.13809 0 7.00002 0C5.86194 0 4.92449 0.873711 4.8222 1.98559H1.6827C0.754854 1.98559 0 2.74044 0 3.66829C0 4.57356 0.718669 5.31376 1.61538 5.34929V13.9327C1.61538 15.0276 2.5061 15.9183 3.60096 15.9183H10.399C11.4939 15.9183 12.3846 15.0276 12.3846 13.9327V5.34925C13.2813 5.31376 14 4.57356 14 3.66825C14 2.7404 13.2452 1.98559 12.3173 1.98559ZM4.8111 13.1109C4.8111 13.3897 4.58507 13.6158 4.30631 13.6158C4.0275 13.6158 3.80152 13.3897 3.80152 13.1109V6.4756C3.80152 6.1968 4.02754 5.97081 4.30631 5.97081C4.58511 5.97081 4.8111 6.19683 4.8111 6.4756V13.1109ZM7.50481 13.1109C7.50481 13.3897 7.27879 13.6158 7.00002 13.6158C6.72121 13.6158 6.49523 13.3897 6.49523 13.1109V6.4756C6.49523 6.1968 6.72125 5.97081 7.00002 5.97081C7.27882 5.97081 7.50481 6.19683 7.50481 6.4756V13.1109ZM10.1985 13.1109C10.1985 13.3897 9.9725 13.6158 9.69373 13.6158C9.41492 13.6158 9.1889 13.3897 9.1889 13.1109V6.4756C9.1889 6.1968 9.41492 5.97081 9.69373 5.97081C9.97253 5.97081 10.1985 6.19683 10.1985 6.4756V13.1109Z" fill="#A5B1D1"/>
</svg>
