<svg width="38" height="34" viewBox="0 0 38 34" fill="none" xmlns="http://www.w3.org/2000/svg">
<path id="Vector" d="M37.8672 6.01517C37.6741 4.8288 36.5286 3.93605 35.1988 3.93605H29.3616V3.22978C29.3616 1.44428 27.7641 0 25.7935 0H12.3286C10.3624 0 8.76045 1.44428 8.76045 3.22581V3.93208H2.80919C1.48377 3.93208 0.338279 4.82483 0.140782 6.0112C-0.122548 7.61816 -0.368323 11.7328 2.89258 15.1847C5.12211 17.5456 7.90902 18.474 9.74794 18.8391C11.1348 21.4697 13.8515 23.4258 17.108 23.9853V30.5758H13.123C12.0784 30.5758 11.2314 31.3416 11.2314 32.2899C11.2314 33.2382 12.0784 34 13.123 34H24.885C25.9296 34 26.7766 33.2342 26.7766 32.2899C26.7766 31.8177 26.566 31.3892 26.2192 31.0757C25.8769 30.7663 25.4029 30.5718 24.8806 30.5718H20.8956V24.0051C24.2135 23.4655 26.9785 21.4856 28.3785 18.8073C30.2175 18.4264 32.9342 17.49 35.111 15.1808C38.3719 11.7288 38.1218 7.61419 37.8584 6.00724L37.8672 6.01517ZM5.77605 12.9628C3.96346 11.0344 3.72646 8.76485 3.80546 7.36025H8.76045V14.8475C8.76045 14.8872 8.76045 14.9268 8.76045 14.9625C7.77296 14.5658 6.6977 13.9428 5.77166 12.9667L5.77605 12.9628ZM32.2319 12.9628C31.341 13.9031 30.314 14.5142 29.3616 14.9189V7.36025H34.2025C34.2815 8.76882 34.0445 11.0384 32.2319 12.9628Z" fill="#5D6F9D"/>
</svg>
