<svg width="61" height="61" viewBox="0 0 61 61" fill="none" xmlns="http://www.w3.org/2000/svg">
<g id="mas">
<circle id="Ellipse 85" cx="30.4998" cy="30.5001" r="29.5833" fill="#DC4F51"/>
<g id="Group 169">
<path id="Union" fill-rule="evenodd" clip-rule="evenodd" d="M27 44C27 45.6569 28.3431 47 30 47H31C32.6569 47 34 45.6569 34 44V34H44C45.6569 34 47 32.6569 47 31V30C47 28.3431 45.6569 27 44 27H34V17C34 15.3431 32.6569 14 31 14H30C28.3431 14 27 15.3431 27 17V27H17C15.3431 27 14 28.3431 14 30V31C14 32.6569 15.3431 34 17 34H27V44Z" fill="#E8EBFF"/>
</g>
</g>
</svg>
