<svg width="20" height="20" viewBox="0 0 20 20" fill="none" xmlns="http://www.w3.org/2000/svg">
<path id="Vector" d="M10 12.6902L4.29312 18.413C3.93234 18.7717 3.47316 18.9511 2.91558 18.9511C2.35801 18.9511 1.89883 18.7717 1.53804 18.413C1.17935 18.0543 1 17.5978 1 17.0435C1 16.4891 1.17935 16.0326 1.53804 15.6739L7.26087 9.95109L1.53804 4.29322C1.17935 3.9324 1 3.47321 1 2.91563C1 2.35802 1.17935 1.89883 1.53804 1.53804C1.89674 1.17935 2.35326 1 2.90761 1C3.46196 1 3.91848 1.17935 4.27717 1.53804L10 7.26087L15.6579 1.53804C16.0187 1.17935 16.4779 1 17.0355 1C17.5931 1 18.0523 1.17935 18.413 1.53804C18.8043 1.92935 19 2.39402 19 2.93207C19 3.47011 18.8043 3.91848 18.413 4.27717L12.6902 9.95109L18.413 15.658C18.7717 16.0188 18.9511 16.4779 18.9511 17.0355C18.9511 17.5931 18.7717 18.0523 18.413 18.413C18.0217 18.8043 17.5571 19 17.019 19C16.481 19 16.0326 18.8043 15.6739 18.413L10 12.6902Z" fill="#5D6F9D" stroke="#5D6F9D" stroke-width="0.1"/>
</svg>
