<svg width="18" height="18" viewBox="0 0 18 18" fill="none" xmlns="http://www.w3.org/2000/svg">
<path id="Vector" d="M9.0001 11.6193L9.03551 11.655L14.7094 17.3778L14.7108 17.3792L14.7108 17.3793C15.0599 17.7601 15.4948 17.95 16.019 17.95C16.5433 17.95 16.9954 17.7599 17.3776 17.3778C17.726 17.0273 17.9011 16.5813 17.9011 16.0355C17.9011 15.4898 17.7261 15.0438 17.3777 14.6934L9.0001 11.6193ZM9.0001 11.6193L8.9646 11.6549L3.25787 17.3776L9.0001 11.6193ZM0.573503 3.25797L6.29602 8.91553L6.33178 8.95088L6.29623 8.98644L0.573399 14.7093C0.224996 15.0577 0.05 15.501 0.05 16.0435C0.05 16.5859 0.224962 17.0292 0.573296 17.3776C0.923767 17.726 1.36982 17.9011 1.91558 17.9011C2.46126 17.9011 2.90727 17.7261 3.25771 17.3777L0.573503 3.25797ZM0.573503 3.25797C0.573454 3.25792 0.573406 3.25787 0.573358 3.25782C0.225009 2.90734 0.05 2.46131 0.05 1.91563C0.05 1.36987 0.225041 0.92381 0.57345 0.573348C0.921845 0.224979 1.36519 0.05 1.90761 0.05C2.45005 0.05 2.89342 0.224996 3.24182 0.573399L8.96464 6.29623L9.0002 6.33178L9.03556 6.29602L14.6931 0.573503C14.6932 0.573441 14.6932 0.573379 14.6933 0.573317C15.0438 0.224996 15.4898 0.05 16.0355 0.05C16.5812 0.05 17.0273 0.225059 17.3778 0.573501C17.7599 0.955706 17.95 1.40775 17.95 1.93207C17.95 2.45631 17.7601 2.89124 17.3793 3.24032L17.3792 3.24029L17.3778 3.24167L11.655 8.91558L11.6193 8.95098L11.6549 8.98649L17.3776 14.6932L0.573503 3.25797Z" fill="#5D6F9D" stroke="#5D6F9D" stroke-width="0.1"/>
</svg>
