<svg width="61" height="61" viewBox="0 0 61 61" fill="none" xmlns="http://www.w3.org/2000/svg">
<g id="mas">
<circle id="Ellipse 85" cx="30.4998" cy="30.5001" r="29.5833" fill="#DC4F51"/>
<g id="Group 169">
<path id="Union" fill-rule="evenodd" clip-rule="evenodd" d="M37.5711 42.5208C38.7427 43.6924 40.6422 43.6924 41.8138 42.5208L42.5209 41.8137C43.6924 40.6421 43.6924 38.7426 42.5209 37.5711L35.4498 30.5L42.5209 23.4289C43.6924 22.2574 43.6924 20.3579 42.5209 19.1863L41.8138 18.4792C40.6422 17.3076 38.7427 17.3076 37.5711 18.4792L30.5001 25.5503L23.429 18.4792C22.2574 17.3076 20.3579 17.3076 19.1863 18.4792L18.4792 19.1863C17.3077 20.3579 17.3077 22.2574 18.4792 23.4289L25.5503 30.5L18.4792 37.5711C17.3077 38.7426 17.3077 40.6421 18.4792 41.8137L19.1863 42.5208C20.3579 43.6924 22.2574 43.6924 23.429 42.5208L30.5001 35.4497L37.5711 42.5208Z" fill="#E8EBFF"/>
</g>
</g>
</svg>
