<svg width="19" height="25" viewBox="0 0 19 25" fill="none" xmlns="http://www.w3.org/2000/svg">
<path id="Vector" d="M16.1317 15.2744L18.7699 3.35535C19.2165 1.3359 17.5134 0.103328 15.7347 1.15876L5.23734 7.39005C4.43817 7.86663 3.82891 8.70849 3.62598 9.61658L0.987775 21.5356C0.54114 23.555 2.24427 24.7876 4.02296 23.7322L14.5203 17.5009C15.3195 17.0243 15.9287 16.1825 16.1317 15.2744ZM8.62225 14.1784C7.68664 13.5013 7.49402 12.1782 8.18561 11.2226C8.8772 10.2669 10.1974 10.0387 11.1299 10.7135C12.0623 11.3883 12.2581 12.7137 11.5665 13.6693C10.8749 14.625 9.55469 14.8532 8.62225 14.1784Z" fill="#E8EBFF"/>
</svg>
