<svg width="27" height="27" viewBox="0 0 27 27" fill="none" xmlns="http://www.w3.org/2000/svg">
<g id="Group 159">
<path id="Vector" d="M13.4999 10.403C11.7925 10.403 10.4028 11.7877 10.4028 13.5C10.4028 15.2123 11.7876 16.5971 13.4999 16.5971C15.2122 16.5971 16.5969 15.2123 16.5969 13.5C16.5969 11.7877 15.2122 10.403 13.4999 10.403Z" fill="#E8EBFF"/>
<path id="Vector_2" d="M25.7344 11.5147H23.9178C23.1088 7.25625 19.7437 3.89118 15.4853 3.08217V1.26562C15.4853 0.565809 14.9195 0 14.2197 0H12.7803C12.0805 0 11.5147 0.565809 11.5147 1.26562V3.08217C7.25625 3.89118 3.89118 7.25625 3.08217 11.5147H1.26562C0.565809 11.5147 0 12.0805 0 12.7803V14.2197C0 14.9195 0.565809 15.4853 1.26562 15.4853H3.08217C3.89118 19.7437 7.25625 23.1088 11.5147 23.9178V25.7344C11.5147 26.4342 12.0805 27 12.7803 27H14.2197C14.9195 27 15.4853 26.4342 15.4853 25.7344V23.9178C19.7437 23.1088 23.1039 19.7437 23.9178 15.4853H25.7344C26.4342 15.4853 27 14.9195 27 14.2197V12.7803C27 12.0805 26.4342 11.5147 25.7344 11.5147ZM13.5 20.1408C9.83713 20.1408 6.85919 17.1629 6.85919 13.5C6.85919 9.83713 9.83713 6.85919 13.5 6.85919C17.1629 6.85919 20.1408 9.83713 20.1408 13.5C20.1408 17.1629 17.1629 20.1408 13.5 20.1408Z" fill="#E8EBFF"/>
</g>
</svg>
