<svg width="23" height="26" viewBox="0 0 23 26" fill="none" xmlns="http://www.w3.org/2000/svg">
<path d="M22.2267 17.4095L12.7013 25.0117C11.9502 25.6103 10.8873 25.608 10.1362 25.0094L0.770067 17.5165C-0.183614 16.754 -0.251896 15.352 0.567495 14.4962C0.628949 14.5622 0.697232 14.6236 0.770067 14.6828L10.1362 22.178C10.8873 22.7766 11.9502 22.7766 12.7013 22.178L22.2267 14.5758C22.3019 14.5166 22.3701 14.4529 22.4339 14.3869C23.251 15.2404 23.185 16.6448 22.2267 17.4095Z" fill="#E8EBFF"/>
<path d="M12.6993 18.6591L22.2271 11.057C23.2649 10.2285 23.2558 8.64662 22.2066 7.83178L12.6971 0.432222C11.9482 -0.150456 10.8944 -0.143628 10.1547 0.450431L0.770375 7.95697C-0.256141 8.77863 -0.256141 10.3423 0.770375 11.164L10.1365 18.6569C10.8853 19.2555 11.9505 19.2577 12.6993 18.6569V18.6591Z" fill="#E8EBFF"/>
</svg>
