<svg width="41" height="41" viewBox="0 0 41 41" fill="none" xmlns="http://www.w3.org/2000/svg">
<g id="Group 156">
<circle id="Ellipse 85" cx="20.5" cy="20.5" r="20.5" fill="#9C65E8"/>
<g id="Group 155">
<path id="Vector" d="M31.2267 25.4095L21.7013 33.0117C20.9502 33.6103 19.8873 33.608 19.1362 33.0094L9.77007 25.5165C8.81639 24.754 8.7481 23.352 9.56749 22.4962C9.62895 22.5622 9.69723 22.6236 9.77007 22.6828L19.1362 30.178C19.8873 30.7766 20.9502 30.7766 21.7013 30.178L31.2267 22.5758C31.3019 22.5166 31.3701 22.4529 31.4339 22.3869C32.251 23.2404 32.185 24.6448 31.2267 25.4095Z" fill="#E8EBFF"/>
<path id="Vector_2" d="M21.6993 26.6591L31.2271 19.057C32.2649 18.2285 32.2558 16.6466 31.2066 15.8318L21.6971 8.43222C20.9482 7.84954 19.8944 7.85637 19.1547 8.45043L9.77037 15.957C8.74386 16.7786 8.74386 18.3423 9.77037 19.164L19.1365 26.6569C19.8853 27.2555 20.9505 27.2577 21.6993 26.6569V26.6591Z" fill="#E8EBFF"/>
</g>
</g>
</svg>
