<svg width="28" height="34" viewBox="0 0 28 34" fill="none" xmlns="http://www.w3.org/2000/svg">
<g id="Group">
<path id="Vector" d="M24.7513 11.2314H22.7993C21.3485 11.2314 20.1729 12.2828 20.1729 13.5801V33.6706C20.1729 33.7936 20.2838 33.8888 20.4169 33.8888H27.1293C27.2669 33.8888 27.3733 33.7896 27.3733 33.6706V13.5801C27.3733 12.2828 26.1977 11.2314 24.7469 11.2314H24.7513Z" fill="#5D6F9D"/>
<path id="Vector_2" d="M14.6625 0H12.7104C11.2597 0 10.084 1.05134 10.084 2.34866V33.6746C10.084 33.7976 10.1949 33.8928 10.328 33.8928H17.0405C17.178 33.8928 17.2845 33.7937 17.2845 33.6746V2.34866C17.2845 1.05134 16.1088 0 14.658 0H14.6625Z" fill="#5D6F9D"/>
<path id="Vector_3" d="M4.57849 17.6984H2.62642C1.17568 17.6984 0 18.7497 0 20.047V33.7819C0 33.9049 0.110908 34.0001 0.244004 34.0001H6.95647C7.094 34.0001 7.20048 33.9009 7.20048 33.7819V20.047C7.20048 18.7497 6.0248 17.6984 4.57406 17.6984H4.57849Z" fill="#5D6F9D"/>
</g>
</svg>
