<svg width="32" height="32" viewBox="0 0 32 32" fill="none" xmlns="http://www.w3.org/2000/svg">
<g id="Group 162">
<g id="bicacin icn">
<circle id="Ellipse 85" cx="16" cy="16" r="16" fill="#E86C56"/>
</g>
<g id="Group 161">
<path id="Vector" d="M16.2615 10.5519C16.2615 9.66425 16.4741 8.827 16.8555 8.08838H12.8708C11.3673 8.08838 10.1465 9.10316 10.1465 10.3547V23.2729C10.1465 23.6302 10.6287 23.8449 10.9859 23.6433L15.3388 21.2104C15.6829 21.0176 16.1344 21.0176 16.4785 21.2104L20.8313 23.6433C21.1886 23.8449 21.6686 23.6302 21.6686 23.2729V15.959C18.6834 15.959 16.2615 13.5393 16.2615 10.5519Z" fill="#EBEDFF"/>
<path id="Vector_2" d="M24.0991 9.88904H22.1112V7.90112C22.1112 7.41674 21.7189 7.02441 21.2345 7.02441C20.7501 7.02441 20.3578 7.41674 20.3578 7.90112V9.88904H18.3699C17.8855 9.88904 17.4932 10.2814 17.4932 10.7657C17.4932 11.2501 17.8855 11.6425 18.3699 11.6425H20.3578V13.6304C20.3578 14.1148 20.7501 14.5071 21.2345 14.5071C21.7189 14.5071 22.1112 14.1148 22.1112 13.6304V11.6425H24.0991C24.5835 11.6425 24.9758 11.2501 24.9758 10.7657C24.9758 10.2814 24.5835 9.88904 24.0991 9.88904Z" fill="#EBEDFF"/>
</g>
</g>
</svg>
