<svg width="32" height="32" viewBox="0 0 32 32" fill="none" xmlns="http://www.w3.org/2000/svg">
<g id="Group 170">
<g id="Group 163">
<g id="bicacin icn">
<circle id="Ellipse 85" cx="16" cy="16" r="16" fill="#9B3637"/>
</g>
</g>
<g id="Group 165">
<path id="Vector" d="M21.3419 16.5812C20.1645 16.5812 19.0833 16.1688 18.2329 15.4787C18.2756 15.5727 18.2991 15.6774 18.2991 15.7885C18.2991 16.203 17.9637 16.5364 17.5513 16.5364H10.7585C10.3462 16.5364 10.0107 16.203 10.0107 15.7885C10.0107 15.374 10.3462 15.0406 10.7585 15.0406H17.5513C17.6389 15.0406 17.7222 15.0556 17.7991 15.0834C17.3098 14.5812 16.9274 13.9765 16.6859 13.3013H10.9594C10.547 13.3013 10.2115 12.968 10.2115 12.5534C10.2115 12.1389 10.547 11.8056 10.9594 11.8056H16.4038C16.3996 11.75 16.3996 11.6945 16.3996 11.6389C16.3996 10.624 16.7051 9.68165 17.2308 8.89746H10.5962C9.16239 8.89746 8 10.0599 8 11.4936V19.9787C8 21.4124 9.16239 22.5748 10.5962 22.5748H19.0791C20.5128 22.5748 21.6752 21.4124 21.6752 19.9787V16.5684C21.5662 16.577 21.453 16.5812 21.3419 16.5812ZM14.9103 19.7714H10.8868C10.4744 19.7714 10.1389 19.4359 10.1389 19.0235C10.1389 18.6111 10.4744 18.2757 10.8868 18.2757H14.9103C15.3227 18.2757 15.6581 18.6111 15.6581 19.0235C15.6581 19.4359 15.3227 19.7714 14.9103 19.7714Z" fill="#EBEDFF"/>
<path id="Vector_2" d="M24.4402 10.7927H22.5021V8.8547C22.5021 8.38248 22.1197 8 21.6474 8C21.1752 8 20.7927 8.38248 20.7927 8.8547V10.7927H18.8547C18.3825 10.7927 18 11.1752 18 11.6474C18 12.1197 18.3825 12.5021 18.8547 12.5021H20.7927V14.4402C20.7927 14.9124 21.1752 15.2949 21.6474 15.2949C22.1197 15.2949 22.5021 14.9124 22.5021 14.4402V12.5021H24.4402C24.9124 12.5021 25.2949 12.1197 25.2949 11.6474C25.2949 11.1752 24.9124 10.7927 24.4402 10.7927Z" fill="#EBEDFF"/>
</g>
</g>
</svg>
