<svg width="34" height="34" viewBox="0 0 34 34" fill="none" xmlns="http://www.w3.org/2000/svg">
<path d="M33 17C33 25.8366 25.8366 33 17 33C8.16344 33 1 25.8366 1 17C1 8.16344 8.16344 1 17 1C25.8366 1 33 8.16344 33 17Z" fill="#DC4F51" stroke="#A5B1D1" stroke-width="2"/>
<path d="M16.6241 22.1949L16.3868 22.4322C16.3868 22.4322 16.3572 22.4619 16.3374 22.4718C16.288 22.5212 16.2286 22.5509 16.1594 22.5805L14.0042 23.2726L11.0481 24.2217C10.6329 24.3502 10.2374 23.9547 10.3758 23.5494L11.3249 20.5933L12.017 18.4282C12.0367 18.3886 12.0367 18.359 12.0565 18.3194C12.0565 18.3194 12.1356 18.2206 12.185 18.1711L12.4026 17.9536C13.3022 18.1415 14.8346 18.6457 15.8233 20.099C16.3176 20.8306 16.5351 21.5919 16.6142 22.1949H16.6241Z" fill="#A5B1D1"/>
<path d="M24.9192 12.6169C24.9192 13.388 24.6127 14.1493 24.0294 14.7326L17.9591 20.8029C17.791 20.1306 17.5142 19.4979 17.1385 18.9443C16.1597 17.5008 14.7657 16.8681 13.7178 16.5814L19.8079 10.4913C20.9745 9.31476 22.8628 9.31476 24.0294 10.4913C24.6226 11.0746 24.9093 11.8457 24.9192 12.607V12.6169Z" fill="#A5B1D1"/>
</svg>
